<svg xmlns="http://www.w3.org/2000/svg" xmlns:xlink="http://www.w3.org/1999/xlink">
	<symbol id="calendar">
		<path fill-rule="evenodd" clip-rule="evenodd" d="M9.955 6.118h1.909v1.909h3.181v-1.91h1.91v1.91h3.181v-1.91h1.91v1.91h3.136a1 1 0 011 1v2.182H5.818V9.027a1 1 0 011-1h3.137v-1.91zM5.818 25.48a1 1 0 001 1h18.364a1 1 0 001-1V13.118H5.818V25.48zm3.5-9.818H12.5v3.182H9.318v-3.182zm3.182 5.091H9.318v3.182H12.5v-3.182zm1.91-5.09h3.181v3.181h-3.182v-3.181zm3.181 5.09h-3.182v3.182h3.182v-3.182zm1.91-5.09h3.18v3.181h-3.18v-3.182z" fill="#17A1CC" />
	</symbol>
	<symbol id="rocket">
		<path d="M16.788 22.674l2.352-2.351c5.245-5.247 6.195-10.634 6.362-12.658a.749.749 0 00-.803-.81c-2.036.15-7.47 1.056-12.72 6.306l-2.353 2.352-.726-.142a4.299 4.299 0 00-3.859 1.18l-2.806 2.807a.637.637 0 00.326 1.078l2.35.47c.66.134 1.265.457 1.74.933l1.038 1.037-1.36 1.36a.64.64 0 000 .905l.83.83c.25.25.655.25.905 0l1.36-1.36 1.036 1.037c.476.476.802 1.08.933 1.743l.47 2.348a.636.636 0 001.079.326l2.806-2.806a4.305 4.305 0 001.18-3.859l-.14-.726zm.104-7.264a2.208 2.208 0 013.12-3.12 2.207 2.207 0 01-3.12 3.12z" fill="#17A1CC" />
	</symbol>
	<symbol id="time">
		<path d="M20.442 23.65v3.784c0 .602-.194 1.079-.58 1.431-.384.35-.896.525-1.536.525-.648 0-1.163-.172-1.544-.517-.381-.347-.572-.828-.572-1.443v-3.78h.98v3.788c0 .379.096.668.288.867.192.2.474.3.848.3.757 0 1.135-.4 1.135-1.198V23.65h.98zM25.587 24.443H23.82v4.87h-.976v-4.87h-1.75v-.793h4.492v.793zM30.546 27.47c-.058.603-.28 1.075-.67 1.415-.388.337-.906.505-1.551.505-.451 0-.85-.106-1.194-.319a2.123 2.123 0 01-.794-.913c-.186-.395-.284-.852-.291-1.373v-.53c0-.533.094-1.004.284-1.411.189-.407.46-.72.813-.941.355-.22.764-.33 1.229-.33.624 0 1.127.17 1.509.509.38.34.602.82.665 1.439h-.98c-.047-.407-.166-.7-.358-.88-.19-.18-.468-.271-.836-.271-.428 0-.758.156-.988.47-.229.311-.345.769-.35 1.373v.502c0 .612.108 1.078.326 1.4.22.321.542.482.965.482.386 0 .677-.087.871-.26.194-.174.318-.463.37-.868h.98z" fill="#17A1CC" />
		<path fill-rule="evenodd" clip-rule="evenodd" d="M16.91 9.073V7.21h2.726V5.39h-7.272V7.21h2.727v1.864c-4.587.457-8.182 4.338-8.182 9.045 0 4.59 3.42 8.397 7.846 9.006v-4.928h9.369a9.036 9.036 0 00.967-4.078c0-4.707-3.595-8.588-8.182-9.045zm6.3 14.577h-2.115v.793h1.428c.244-.25.473-.515.686-.793zm-2.769 2.398V23.65h-.98v2.874a9.07 9.07 0 00.98-.476zm-3.25 1.083V23.65h-.981v3.556c.331-.007.658-.033.98-.075zm3.354-8.104h-5.454v-5.455h1.818v3.637h3.636v1.818z" fill="#17A1CC" />
	</symbol>
	<symbol viewBox="0 0 324 41" id="logo">
		<path d="M75.4658 15.1167H48.0853L47.0708 15.878V40.3209H54.6504V31.1549L55.3739 30.5043H75.4668C80.54 30.5043 82.9185 29.1346 82.9185 25.6201V20.0078C82.9175 16.4874 80.54 15.1167 75.4658 15.1167ZM75.4658 24.1533C75.4658 25.8092 74.3742 26.1531 71.9957 26.1531H55.4569L54.6494 25.3653V20.1293L55.3729 19.465H71.9957C74.3742 19.465 75.4658 19.805 75.4658 21.4687V24.1533Z" fill="white" />
		<path d="M96.7402 19.7403L103.262 29.3296L102.901 30.2584H88.4771L84.7952 34.8037H106.266L107.754 35.7129L111.087 40.3267H119.761L100.748 14.8042" fill="white" />
		<path d="M182.99 35.3621V28.5781L183.771 27.902H198.282V23.5821H175.283V40.3258H209.208V36.0264H183.805" fill="white" />
		<path d="M209.566 15.1167H175.283V19.8667H209.566V15.1167Z" fill="white" />
		<path d="M137.045 19.6149H164.665C164.239 16.0906 162.06 15.1128 156.532 15.1128H136.751C130.513 15.1128 128.523 16.3346 128.523 21.0719V34.3628C128.523 39.105 130.513 40.3268 136.751 40.3268H156.532C162.141 40.3268 164.289 39.2696 164.435 35.614H137.045L136.233 34.8468V20.1283" fill="white" />
		<path d="M28.6398 24.9381H8.54697L7.95528 24.2846V19.9716L8.54404 19.515H35.6307L36.0007 18.6067C35.0781 16.2249 32.6889 15.1138 28.2522 15.1138H9.43645C3.20228 15.1138 1.20949 16.3356 1.20949 21.0729V23.8594C1.20949 28.6026 3.20228 29.8224 9.43645 29.8224H29.4844L30.1142 30.377V34.886L29.6006 35.5895H6.66842V35.5679H0.661747C0.661747 35.5679 -0.0256228 35.9138 0.000739353 36.0754C0.513337 39.3891 2.76291 40.3277 8.1486 40.3277H28.6398C34.873 40.3277 36.9254 39.1059 36.9254 34.3637V30.8923C36.9254 26.158 34.873 24.9381 28.6398 24.9381Z" fill="white" />
		<path d="M231.133 15.0128H219.854L219.242 16.1817L231.767 25.3438C234.14 23.9652 236.721 22.568 239.529 21.1895" fill="white" />
		<path d="M241.238 32.2719L252.247 40.3277H263.663L264.135 39.2607L247.697 27.1868C245.514 28.7946 243.357 30.4926 241.238 32.2719Z" fill="white" />
		<path d="M229.454 40.3091H219.25L218.388 38.9541C225.326 32.2317 256.357 3.41505 323.809 0.327728C323.809 0.327728 267.193 2.2442 229.454 40.3091Z" fill="#17A1CC" />
	</symbol>
</svg>
